<svg xmlns="http://www.w3.org/2000/svg" xmlns:xlink="http://www.w3.org/1999/xlink" width="70" height="70" viewBox="0 0 70 70">
  <defs>
    <clipPath id="clip-BS_1">
      <rect width="70" height="70"/>
    </clipPath>
  </defs>
  <g id="BS_1" data-name="BS 1" clip-path="url(#clip-BS_1)">
    <g id="Bs_1-2" data-name="Bs 1" transform="translate(-0.04 2.5)">
      <path id="Path_1" data-name="Path 1" d="M420,260.042h-3.262s-3.963,3-4,2.958S405,263,405,263l-15-13.788s-.234-6.593,0-6.925,13.3-5.014,16.368-9.287c1.332-1.871,1.774-2.644,3.632-6.99s3.574-9.865,3.574-9.865l2.462-1.27s.318-6.441.8-8.724a29.08,29.08,0,0,1,1.215-4.787A14.24,14.24,0,0,1,420,198a12.443,12.443,0,0,1,2.129,3.364,31.639,31.639,0,0,1,.877,4.6c.551,3.709,1.126,8.912,1.126,8.912l2.427,1.27s1.682,5.741,2.883,9.125a26.424,26.424,0,0,0,4.421,7.73c5.86,6.536,15.72,8.454,16.135,9.287s0,6.925,0,6.925L435,263h-7.958l-4.2-2.958Z" transform="translate(-385 -198)" fill="#545454" stroke="#000" stroke-width="0.5"/>
      <path id="Path_9" data-name="Path 9" d="M390,243l17.319-7.044,5.791-15.7H415c.014,0,0,17.74,0,17.74h10V220.26h2.129l5.486,15.7L450,243v6.367l-6.031,4.953h-2.286L440,253s-1.213.786-1.137.938a44.318,44.318,0,0,1-3.048-4.115,9.543,9.543,0,0,0,.533-1.824s-4.419-5-4.419-5l-1.93-.948-2.185,1.752-4.572,15.01h-6.858l-4.267-15.01L410,242.052s-2.3.753-2.148.948-4.419,5.233-4.267,5,.381,1.214.381,1.367-2.819,4.572-2.819,4.572A9.756,9.756,0,0,0,400,253a20.2,20.2,0,0,1-1.825,1.319H395.89s-5.988-4.8-5.89-4.953S390,243,390,243Z" transform="translate(-385 -198)" fill="#b1b1b1"/>
      <g id="Ellipse_1" data-name="Ellipse 1" transform="translate(32.5 4)" stroke="#171717" stroke-width="0.2">
        <ellipse cx="2.5" cy="6.5" rx="2.5" ry="6.5" stroke="none"/>
        <ellipse cx="2.5" cy="6.5" rx="2.4" ry="6.4" fill="none"/>
      </g>
      <path id="Path_2" data-name="Path 2" d="M417.654,210.159s.439-.359,2.346-.339,2.325.339,2.325.339" transform="translate(-385 -198)" fill="none" stroke="#191919" stroke-width="0.3"/>
      <g id="Path_3" data-name="Path 3" transform="translate(33 29)" fill="#333">
        <path d="M 3 5.75 L 1 5.75 C 0.5864499807357788 5.75 0.25 5.413549900054932 0.25 5 L 0.25 1 C 0.25 0.5864499807357788 0.5864499807357788 0.25 1 0.25 L 3 0.25 C 3.413549900054932 0.25 3.75 0.5864499807357788 3.75 1 L 3.75 5 C 3.75 5.413549900054932 3.413549900054932 5.75 3 5.75 Z" stroke="none"/>
        <path d="M 1 0.5 C 0.7242999076843262 0.5 0.5 0.7242999076843262 0.5 1 L 0.5 5 C 0.5 5.275700092315674 0.7242999076843262 5.5 1 5.5 L 3 5.5 C 3.275700092315674 5.5 3.5 5.275700092315674 3.5 5 L 3.5 1 C 3.5 0.7242999076843262 3.275700092315674 0.5 3 0.5 L 1 0.5 M 1 0 L 3 0 C 3.552279949188232 0 4 0.4477200508117676 4 1 L 4 5 C 4 5.552279949188232 3.552279949188232 6 3 6 L 1 6 C 0.4477200508117676 6 0 5.552279949188232 0 5 L 0 1 C 0 0.4477200508117676 0.4477200508117676 0 1 0 Z" stroke="none" fill="#707070"/>
      </g>
      <path id="Path_4" data-name="Path 4" d="M396.407,254.715h1.84S400.025,253.082,400,253s.943.955.943.955l3.041-4.078L403.57,248l4.147-5,2.283-.8,2.279,1.8,4.493,15.967L412.832,263s-7.853-.01-7.832,0S396.407,254.715,396.407,254.715Z" transform="translate(-385 -198)" fill="none" stroke="#000" stroke-width="1"/>
      <path id="Path_5" data-name="Path 5" d="M416.672,254.715H414.56s-1.778-1.633-1.753-1.715-.943.955-.943.955l-3.041-4.078.415-1.876-4.147-5-2.283-.8-2.279,1.8-4.493,15.967,3.94,3.032s7.853-.01,7.832,0S416.672,254.715,416.672,254.715Z" transform="translate(-358 -198)" fill="none" stroke="#000" stroke-width="1"/>
      <path id="Path_6" data-name="Path 6" d="M417.028,243h5.752a47.193,47.193,0,0,1,0,5l-1.387,1.714-.442,4.327a15.52,15.52,0,0,1-2.031,0c-.177-.088-.4-4.238-.493-4.327s-1.4-1.714-1.4-1.714Z" transform="translate(-385 -198)" fill="#3f3f3f" stroke="#707070" stroke-width="1"/>
      <path id="Path_7" data-name="Path 7" d="M404.058,259.215c0-.318,2.045-6.786,2.045-6.786a3.036,3.036,0,0,0,.536,0c.031-.031.284,1.229.284,1.229l1.2,1.008.693-.41,1.7,1.67-1.008,3.465a8.519,8.519,0,0,1-1.386.22c-.094-.063-.031-.477,0-.4a5.912,5.912,0,0,1-1.2,0l-.284.4S404.056,259.533,404.058,259.215Z" transform="translate(-385 -198)" fill="#292929" stroke="#707070" stroke-width="0.2"/>
      <path id="Path_8" data-name="Path 8" d="M410.985,259.215c0-.318-2.038-6.786-2.038-6.786a4.7,4.7,0,0,1-.666,0c-.031-.031-.631,1.229-.631,1.229l-.741.917-.456-.353-1.857,1.725.862,3.268a8.8,8.8,0,0,0,1.45.4c.094-.063.031-.477,0-.4s.741,0,.741,0l.284.4S410.987,259.533,410.985,259.215Z" transform="translate(-360.058 -198)" fill="#292929" stroke="#707070" stroke-width="0.2"/>
    </g>
  </g>
</svg>
